#!OML:ASF H:\ManfredETheater\Project 1\Capture day 1\Session 1\subject.ASF
:FULLY-SPECIFIED
:DEGREES
136
root 3.69201 16.0142 -9.64229 -477.931 -69.092 147.065
lowerback 28.4845 -1.53168 -0.576893
upperback 3.74801 -2.84244 -2.26453
thorax -11.669 -1.49448 -1.14694
lowerneck -1.65967 -11.3028 -13.2832
upperneck -24.0126 -14.0084 19.6704
head -4.30427 -7.99234 8.72889
rclavicle -2.8625e-014 -1.90833e-014
rhumerus -36.559 -5.90627 -80.5137
rradius 93.3737
rwrist -3.86609
rhand -33.5691 3.42764
rfingers 7.12502
rthumb -6.76357 -26.4443
lclavicle -2.8625e-014 -1.90833e-014
lhumerus -49.734 1.86159 83.1095
lradius 99.115
lwrist -5.93108
lhand -37.8389 -19.6073
lfingers 7.12502
lthumb -10.8839 10.0906
rfemur -47.811 -16.5917 32.326
rtibia 67.9272
rfoot -22.4782 7.00935
rtoes -10.5902
lfemur -63.6189 -0.511531 -16.2761
ltibia 84.8545
lfoot -13.2915 -10.2969
ltoes -14.8935
137
root 3.42305 16.123 -10.0681 -480.658 -68.9953 149.283
lowerback 27.6052 -1.16566 -0.958094
upperback 3.63897 -2.45034 -2.21596
thorax -11.3123 -1.29592 -1.03494
lowerneck -1.73903 -11.4691 -13.4594
upperneck -23.5197 -14.1904 20.0011
head -4.05933 -8.06897 8.79536
rclavicle 3.57812e-014 1.11319e-014
rhumerus -37.3194 -4.80917 -82.0717
rradius 94.001
rwrist -3.62872
rhand -33.7346 4.13798
rfingers 7.12502
rthumb -6.92337 -25.7288
lclavicle 3.57812e-014 1.11319e-014
lhumerus -51.3703 1.45137 82.9506
lradius 99.0352
lwrist -5.3552
lhand -37.5622 -20.0698
lfingers 7.12502
lthumb -10.617 9.64202
rfemur -44.211 -16.6739 33.0179
rtibia 64.891
rfoot -19.4775 9.19085
rtoes -7.22811
lfemur -64.5115 -0.505906 -17.0715
ltibia 83.8713
lfoot -14.1788 -11.4498
ltoes -15.9446
138
root 3.14833 16.2388 -10.5012 -483.639 -68.9024 151.7
lowerback 26.7776 -0.794846 -1.28987
upperback 3.56128 -2.02822 -2.13514
thorax -10.9481 -1.08479 -0.917563
lowerneck -1.83503 -11.6418 -13.6572
upperneck -22.9838 -14.3857 20.3238
head -3.79586 -8.14713 8.85628
rclavicle 7.55382e-015 8.15017e-014
rhumerus -37.9701 -3.5856 -83.6107
rradius 94.374
rwrist -3.51166
rhand -33.8441 4.77977
rfingers 7.12502
rthumb -7.02911 -25.0835
lclavicle 7.55382e-015 8.15017e-014
lhumerus -52.897 1.01099 82.89
lradius 98.9939
lwrist -4.51402
lhand -37.1869 -20.5392
lfingers 7.12502
lthumb -10.255 9.19079
rfemur -40.4349 -16.6969 33.6412
rtibia 61.5737
rfoot -15.625 11.2525
rtoes -3.49973
lfemur -65.2062 -0.47247 -17.7219
ltibia 82.5959
lfoot -14.8753 -12.5506
ltoes -16.9594
139
root 2.86823 16.3582 -10.94 -486.851 -68.8049 154.285
lowerback 26.014 -0.429992 -1.56505
upperback 3.51839 -1.59118 -2.02423
thorax -10.5809 -0.868529 -0.795927
lowerneck -1.96399 -11.8104 -13.855
upperneck -22.4054 -14.5808 20.6191
head -3.51768 -8.2201 8.90253
rclavicle -1.11319e-014 -3.4191e-014
rhumerus -38.4934 -2.23384 -85.1185
rradius 94.4884
rwrist -3.42937
rhand -33.8612 5.34471
rfingers 7.12502
rthumb -7.04559 -24.518
lclavicle -1.11319e-014 -3.4191e-014
lhumerus -54.3143 0.599338 82.9266
lradius 99.0003
lwrist -3.44997
lhand -36.722 -20.9791
lfingers 7.12502
lthumb -9.80645 8.7726
rfemur -36.4948 -16.6501 34.1825
rtibia 57.9792
rfoot -10.7968 13.015
rtoes 0.485728
lfemur -65.701 -0.43012 -18.2175
ltibia 81.0746
lfoot -15.3805 -13.5596
ltoes -17.8124
140
root 2.58368 16.4774 -11.3822 -490.283 -68.7057 157.062
lowerback 25.2844 -0.0827167 -1.74841
upperback 3.49856 -1.14505 -1.8819
thorax -10.2099 -0.650616 -0.687625
lowerneck -2.13304 -11.9684 -14.0386
upperneck -21.7811 -14.7681 20.8694
head -3.22734 -8.28337 8.92669
rclavicle 1.07344e-014 -9.93923e-014
rhumerus -38.8878 -0.762898 -86.5781
rradius 94.3447
rwrist -3.29695
rhand -33.749 5.83413
rfingers 7.12502
rthumb -6.93731 -24.0322
lclavicle 1.07344e-014 -9.93923e-014
lhumerus -55.6284 0.253698 83.0309
lradius 99.0574
lwrist -2.26771
lhand -36.1764 -21.3829
lfingers 7.12502
lthumb -9.28004 8.39284
rfemur -32.4482 -16.4679 34.6739
rtibia 54.1317
rfoot -5.10568 14.1652
rtoes 4.16729
lfemur -66.0572 -0.380875 -18.5422
ltibia 79.358
lfoot -15.7343 -14.4063
ltoes -18.5928
141
root 2.29529 16.5938 -11.8257 -493.899 -68.5862 160.018
lowerback 24.5697 0.233586 -1.82346
upperback 3.49493 -0.70565 -1.71529
thorax -9.83256 -0.438707 -0.605346
lowerneck -2.35136 -12.1081 -14.2081
upperneck -21.106 -14.9368 21.0725
head -2.92443 -8.33109 8.92873
rclavicle 1.03368e-014 -2.22639e-014
rhumerus -39.1506 0.825186 -87.9805
rradius 93.9538
rwrist -3.04271
rhand -33.4769 6.24642
rfingers 7.12502
rthumb -6.67463 -23.6284
lclavicle 1.03368e-014 -2.22639e-014
lhumerus -56.8437 0.0198213 83.1744
lradius 99.1667
lwrist -1.08211
lhand -35.5722 -21.7235
lfingers 7.12502
lthumb -8.69695 8.07737
rfemur -28.3425 -16.1117 35.1284
rtibia 50.0727
rfoot 1.24597 14.4821
rtoes 7.33157
lfemur -66.3103 -0.330693 -18.7061
ltibia 77.4853
lfoot -15.9576 -15.0526
ltoes -19.2077
142
root 2.00374 16.7049 -12.2676 -497.556 -68.4362 163.055
lowerback 23.8326 0.499146 -1.76508
upperback 3.48587 -0.294994 -1.54397
thorax -9.45203 -0.243149 -0.578757
lowerneck -2.61456 -12.2267 -14.3557
upperneck -20.3707 -15.0831 21.2248
head -2.6089 -8.36118 8.90709
rclavicle -2.50469e-014 3.4191e-014
rhumerus -39.3023 2.49982 -89.3217
rradius 93.3341
rwrist -2.60034
rhand -33.0089 6.60128
rfingers 7.12502
rthumb -6.22283 -23.2873
lclavicle -2.50469e-014 3.4191e-014
lhumerus -57.972 -0.0872397 83.3304
lradius 99.3242
lwrist -0.0110244
lhand -34.9436 -21.9515
lfingers 7.12502
lthumb -8.09032 7.87368
rfemur -24.2692 -15.5733 35.5598
rtibia 45.8757
rfoot 7.97366 13.8433
rtoes 10.0613
lfemur -66.5317 -0.305682 -18.7504
ltibia 75.484
lfoot -16.0856 -15.4634
ltoes -19.6752
